<svg width="19" height="19" viewBox="0 0 19 19" fill="none" xmlns="http://www.w3.org/2000/svg">
<g id="icon / jam-icons / outline &#38; logos / arrow-right">
<path id="Vector" d="M12.054 8.31639L9.11109 5.37347C8.97538 5.23296 8.90028 5.04476 8.90198 4.84941C8.90368 4.65406 8.98203 4.46719 9.12017 4.32906C9.25831 4.19092 9.44517 4.11257 9.64052 4.11087C9.83587 4.10917 10.0241 4.18427 10.1646 4.31998L14.3793 8.53469C14.4487 8.60372 14.5038 8.68579 14.5414 8.77619C14.579 8.86659 14.5984 8.96353 14.5984 9.06143C14.5984 9.15934 14.579 9.25628 14.5414 9.34667C14.5038 9.43707 14.4487 9.51915 14.3793 9.58818L10.1646 13.8029C10.0959 13.874 10.0136 13.9308 9.92275 13.9698C9.83185 14.0089 9.73408 14.0294 9.63516 14.0303C9.53623 14.0312 9.43812 14.0123 9.34656 13.9749C9.255 13.9374 9.17181 13.8821 9.10186 13.8121C9.03191 13.7422 8.97658 13.659 8.93912 13.5674C8.90166 13.4759 8.88281 13.3777 8.88367 13.2788C8.88453 13.1799 8.90508 13.0821 8.94413 12.9912C8.98318 12.9003 9.03994 12.8181 9.11109 12.7494L12.054 9.80647H4.91203C4.71444 9.80647 4.52493 9.72798 4.38521 9.58826C4.24549 9.44853 4.16699 9.25903 4.16699 9.06143C4.16699 8.86383 4.24549 8.67433 4.38521 8.53461C4.52493 8.39489 4.71444 8.31639 4.91203 8.31639H12.054Z" fill="white"/>
</g>
</svg>
