<svg width="24" height="25" viewBox="0 0 24 25" fill="none" xmlns="http://www.w3.org/2000/svg">
<g id="icon / ionicons / outline / menu-outline">
<path id="Vector (Stroke)" fill-rule="evenodd" clip-rule="evenodd" d="M3 8.20801C3 7.79379 3.33579 7.45801 3.75 7.45801H20.25C20.6642 7.45801 21 7.79379 21 8.20801C21 8.62222 20.6642 8.95801 20.25 8.95801H3.75C3.33579 8.95801 3 8.62222 3 8.20801Z" fill="#036638"/>
<path id="Vector (Stroke)_2" fill-rule="evenodd" clip-rule="evenodd" d="M3 12.708C3 12.2938 3.33579 11.958 3.75 11.958H20.25C20.6642 11.958 21 12.2938 21 12.708C21 13.1222 20.6642 13.458 20.25 13.458H3.75C3.33579 13.458 3 13.1222 3 12.708Z" fill="#FF6600"/>
<path id="Vector (Stroke)_3" fill-rule="evenodd" clip-rule="evenodd" d="M3 17.208C3 16.7938 3.33579 16.458 3.75 16.458H20.25C20.6642 16.458 21 16.7938 21 17.208C21 17.6222 20.6642 17.958 20.25 17.958H3.75C3.33579 17.958 3 17.6222 3 17.208Z" fill="#036638"/>
</g>
</svg>
