<svg width="65" height="64" viewBox="0 0 65 64" fill="none" xmlns="http://www.w3.org/2000/svg">
<g id="vuesax/outline/medal-star">
<g id="medal-star">
<path id="Vector" d="M32.3332 44.6667C31.2666 44.6667 30.1999 44.5866 29.1866 44.4C23.5332 43.5733 18.3866 40.32 15.1332 35.4933C12.8666 32.08 11.6666 28.1067 11.6666 24C11.6666 12.6133 20.9466 3.33333 32.3332 3.33333C43.7199 3.33333 52.9999 12.6133 52.9999 24C52.9999 28.1067 51.7999 32.08 49.5332 35.4933C46.2532 40.3467 41.1066 43.5733 35.3999 44.4267C34.4666 44.5867 33.3999 44.6667 32.3332 44.6667ZM32.3332 7.33333C23.1332 7.33333 15.6666 14.8 15.6666 24C15.6666 27.3333 16.6266 30.5333 18.4399 33.2533C21.0799 37.1467 25.2132 39.76 29.7999 40.4267C31.5066 40.72 33.1866 40.72 34.7599 40.4267C39.4266 39.76 43.5599 37.12 46.1999 33.2266C48.0132 30.5066 48.9732 27.3066 48.9732 23.9733C48.9999 14.8 41.5332 7.33333 32.3332 7.33333Z" fill="#036638"/>
<path id="Vector_2" d="M17.5861 60.2399C17.2127 60.2399 16.8661 60.1866 16.4927 60.1066C14.7594 59.7066 13.4261 58.3732 13.0261 56.6399L12.0927 52.7199C12.0394 52.4799 11.8527 52.2932 11.5861 52.2132L7.18608 51.1733C5.53275 50.7733 4.22608 49.5466 3.77275 47.9199C3.31941 46.2933 3.77275 44.5333 4.97275 43.3333L15.3727 32.9333C15.7994 32.5066 16.3861 32.2933 16.9727 32.3466C17.5594 32.3999 18.0927 32.7199 18.4394 33.2266C21.0794 37.1199 25.2127 39.7599 29.8261 40.4266C31.5327 40.7199 33.2127 40.7199 34.7861 40.4266C39.4527 39.7599 43.5861 37.1199 46.2261 33.2266C46.5461 32.7199 47.1061 32.3999 47.6927 32.3466C48.2794 32.2933 48.8661 32.5066 49.2927 32.9333L59.6927 43.3333C60.8927 44.5333 61.3461 46.2933 60.8927 47.9199C60.4394 49.5466 59.1061 50.7999 57.4794 51.1733L53.0794 52.2132C52.8394 52.2666 52.6527 52.4532 52.5727 52.7199L51.6394 56.6399C51.2394 58.3732 49.9061 59.7066 48.1727 60.1066C46.4394 60.5333 44.6527 59.9199 43.5327 58.5599L32.3327 45.6799L21.1327 58.5866C20.2261 59.6533 18.9461 60.2399 17.5861 60.2399ZM16.5727 37.4133L7.79941 46.1866C7.55941 46.4266 7.58608 46.6933 7.63941 46.8533C7.66608 46.9866 7.79941 47.2532 8.11941 47.3066L12.5194 48.3466C14.2527 48.7466 15.5861 50.0799 15.9861 51.8132L16.9194 55.7332C16.9994 56.0799 17.2661 56.1866 17.4261 56.2399C17.5861 56.2666 17.8527 56.2933 18.0927 56.0266L28.3061 44.2666C23.7727 43.3866 19.6127 40.9599 16.5727 37.4133ZM36.3594 44.2399L46.5727 55.9732C46.8127 56.2666 47.1061 56.2666 47.2661 56.2132C47.4261 56.1866 47.6661 56.0533 47.7727 55.7066L48.7061 51.7866C49.1061 50.0533 50.4394 48.7199 52.1727 48.3199L56.5727 47.2799C56.8927 47.1999 57.0261 46.9599 57.0527 46.8266C57.1061 46.6932 57.1327 46.3999 56.8927 46.1599L48.1194 37.3866C45.0527 40.9332 40.9194 43.3599 36.3594 44.2399Z" fill="#036638"/>
<path id="Vector_3" d="M37.3736 34.3734C36.6803 34.3734 35.8536 34.1867 34.867 33.6L32.3336 32.08L29.8003 33.5733C27.4803 34.96 25.9603 34.16 25.4003 33.76C24.8403 33.36 23.6403 32.16 24.2536 29.52L24.8936 26.7734L22.7603 24.8C21.587 23.6266 21.1603 22.2133 21.5603 20.9333C21.9603 19.6533 23.1336 18.7466 24.787 18.48L27.6403 18L29.0003 15.0133C29.7736 13.4933 30.9736 12.64 32.3336 12.64C33.6936 12.64 34.9203 13.52 35.667 15.04L37.2403 18.1867L39.8803 18.5067C41.507 18.7733 42.6803 19.68 43.107 20.96C43.507 22.24 43.0803 23.6533 41.907 24.8267L39.6936 27.04L40.387 29.52C41.0003 32.16 39.8003 33.36 39.2403 33.76C38.947 34 38.307 34.3734 37.3736 34.3734ZM25.9603 22.3734L27.8003 24.2133C28.6536 25.0666 29.0803 26.5067 28.8136 27.68L28.307 29.8133L30.4403 28.56C31.587 27.8933 33.1336 27.8933 34.2536 28.56L36.387 29.8133L35.907 27.68C35.6403 26.48 36.0403 25.0666 36.8936 24.2133L38.7336 22.3734L36.4136 21.9733C35.2936 21.7866 34.1736 20.96 33.667 19.9467L32.3336 17.3333L31.0003 20C30.5203 20.9867 29.4003 21.84 28.2803 22.0267L25.9603 22.3734Z" fill="#036638"/>
</g>
</g>
</svg>
