<svg width="64" height="64" viewBox="0 0 64 64" fill="none" xmlns="http://www.w3.org/2000/svg">
<g id="vuesax/outline/people">
<g id="people">
<path id="Vector" d="M47.9996 21.0934C47.9196 21.0934 47.8662 21.0934 47.7862 21.0934H47.6529C42.6129 20.9334 38.8529 17.04 38.8529 12.24C38.8529 7.33337 42.8529 3.36003 47.7329 3.36003C52.6129 3.36003 56.6129 7.36004 56.6129 12.24C56.5862 17.0667 52.8262 20.96 48.0262 21.12C48.0262 21.0934 48.0262 21.0934 47.9996 21.0934ZM47.7329 7.33338C45.0396 7.33338 42.8529 9.52005 42.8529 12.2134C42.8529 14.8534 44.9062 16.9867 47.5462 17.0934C47.5729 17.0667 47.7862 17.0667 48.0262 17.0934C50.6129 16.9601 52.6129 14.8267 52.6396 12.2134C52.6396 9.52005 50.4529 7.33338 47.7329 7.33338Z" fill="#036638"/>
<path id="Vector_2" d="M48.0266 40.7467C46.9866 40.7467 45.9466 40.6667 44.9066 40.48C43.8133 40.2934 43.0933 39.2534 43.28 38.1601C43.4666 37.0667 44.5066 36.3467 45.6 36.5334C48.88 37.0934 52.3466 36.4801 54.6666 34.9334C55.92 34.1068 56.5866 33.0667 56.5866 32.0267C56.5866 30.9867 55.8933 29.9734 54.6666 29.1467C52.3466 27.6 48.8266 26.9867 45.52 27.5734C44.4266 27.7867 43.3866 27.0401 43.2 25.9467C43.0133 24.8534 43.7333 23.8134 44.8266 23.6267C49.1733 22.8534 53.68 23.6801 56.88 25.8134C59.2266 27.3867 60.5866 29.6267 60.5866 32.0267C60.5866 34.4001 59.2533 36.6668 56.88 38.2668C54.4533 39.8668 51.3066 40.7467 48.0266 40.7467Z" fill="#036638"/>
<path id="Vector_3" d="M15.9199 21.0933C15.8932 21.0933 15.8666 21.0933 15.8666 21.0933C11.0666 20.9333 7.30657 17.04 7.27991 12.24C7.27991 7.33332 11.2799 3.33333 16.1599 3.33333C21.0399 3.33333 25.0399 7.33333 25.0399 12.2133C25.0399 17.04 21.2799 20.9333 16.4799 21.0933L15.9199 19.0933L16.1066 21.0933C16.0532 21.0933 15.9732 21.0933 15.9199 21.0933ZM16.1866 17.0933C16.3466 17.0933 16.4799 17.0933 16.6399 17.12C19.0132 17.0133 21.0932 14.88 21.0932 12.24C21.0932 9.54665 18.9066 7.35998 16.2132 7.35998C13.5199 7.35998 11.3332 9.54665 11.3332 12.24C11.3332 14.8533 13.3599 16.96 15.9466 17.12C15.9732 17.0933 16.0799 17.0933 16.1866 17.0933Z" fill="#036638"/>
<path id="Vector_4" d="M15.8934 40.7467C12.6134 40.7467 9.46671 39.8668 7.04004 38.2668C4.69337 36.6934 3.33337 34.4267 3.33337 32.0267C3.33337 29.6534 4.69337 27.3867 7.04004 25.8134C10.24 23.6801 14.7467 22.8534 19.0934 23.6267C20.1867 23.8134 20.9067 24.8534 20.72 25.9467C20.5334 27.0401 19.4934 27.7867 18.4 27.5734C15.0934 26.9867 11.6 27.6 9.25338 29.1467C8.00004 29.9734 7.33337 30.9867 7.33337 32.0267C7.33337 33.0667 8.02671 34.1068 9.25338 34.9334C11.5734 36.4801 15.04 37.0934 18.32 36.5334C19.4134 36.3467 20.4534 37.0934 20.64 38.1601C20.8267 39.2534 20.1067 40.2934 19.0134 40.48C17.9734 40.6667 16.9334 40.7467 15.8934 40.7467Z" fill="#036638"/>
<path id="Vector_5" d="M31.9996 41.0133C31.9196 41.0133 31.8662 41.0133 31.7862 41.0133H31.6529C26.6129 40.8533 22.8529 36.96 22.8529 32.16C22.8529 27.2533 26.8529 23.28 31.7329 23.28C36.6129 23.28 40.6129 27.28 40.6129 32.16C40.5862 36.9866 36.8262 40.88 32.0262 41.04C32.0262 41.0133 32.0262 41.0133 31.9996 41.0133ZM31.7329 27.2533C29.0396 27.2533 26.8529 29.44 26.8529 32.1333C26.8529 34.7733 28.9062 36.9066 31.5462 37.0133C31.5729 36.9866 31.7862 36.9866 32.0262 37.0133C34.6129 36.88 36.6129 34.7466 36.6396 32.1333C36.6396 29.4666 34.4529 27.2533 31.7329 27.2533Z" fill="#036638"/>
<path id="Vector_6" d="M31.9994 60.6933C28.7994 60.6933 25.5994 59.8666 23.1194 58.1866C20.7727 56.6133 19.4127 54.3733 19.4127 51.9733C19.4127 49.5999 20.7461 47.3066 23.1194 45.7333C28.1061 42.4266 35.9194 42.4266 40.8794 45.7333C43.2261 47.3066 44.5861 49.5466 44.5861 51.9466C44.5861 54.3199 43.2527 56.6133 40.8794 58.1866C38.3994 59.84 35.1994 60.6933 31.9994 60.6933ZM25.3327 49.0933C24.0794 49.9199 23.4127 50.9599 23.4127 51.9999C23.4127 53.0399 24.1061 54.0533 25.3327 54.8799C28.9327 57.3066 35.0394 57.3066 38.6394 54.8799C39.8927 54.0533 40.5594 53.0133 40.5594 51.9733C40.5594 50.9333 39.8661 49.9199 38.6394 49.0933C35.0661 46.6666 28.9594 46.6933 25.3327 49.0933Z" fill="#036638"/>
</g>
</g>
</svg>
