<svg width="65" height="64" viewBox="0 0 65 64" fill="none" xmlns="http://www.w3.org/2000/svg">
<rect x="0.666626" width="64" height="64" rx="15" fill="#FF6600"/>
<path d="M32.6667 50.5333C25.68 50.5333 20 44.8533 20 37.8667C20 30.88 25.68 25.2 32.6667 25.2C39.6533 25.2 45.3333 30.88 45.3333 37.8667C45.3333 44.8533 39.6533 50.5333 32.6667 50.5333ZM32.6667 29.2C27.8933 29.2 24 33.0933 24 37.8667C24 42.64 27.8933 46.5333 32.6667 46.5333C37.44 46.5333 41.3333 42.64 41.3333 37.8667C41.3333 33.0933 37.44 29.2 32.6667 29.2Z" fill="#036638"/>
<path d="M31.1733 42.2133C30.32 42.2133 29.4666 41.8933 28.8266 41.2533L27.0933 39.52C26.32 38.7467 26.32 37.4667 27.0933 36.6933C27.8666 35.92 29.1466 35.92 29.92 36.6933L31.2 37.9733L35.4933 34.0267C36.2933 33.28 37.5733 33.3333 38.32 34.1333C39.0666 34.9333 39.0133 36.2133 38.2133 36.96L33.4666 41.3333C32.8 41.92 32 42.2133 31.1733 42.2133Z" fill="#036638"/>
<path d="M43.3332 60.6667H21.9999C9.67991 60.6667 7.38658 54.9333 6.79991 49.36L4.79991 28C4.50658 25.2 4.42658 21.0667 7.19991 17.9733C9.59991 15.3067 13.5732 14.0267 19.3332 14.0267H45.9999C51.7866 14.0267 55.7599 15.3333 58.1332 17.9733C60.9066 21.0667 60.8266 25.2 60.5332 28.0267L58.5332 49.3333C57.9466 54.9333 55.6532 60.6667 43.3332 60.6667ZM19.3332 18C14.8266 18 11.7332 18.88 10.1599 20.64C8.85325 22.08 8.42658 24.2933 8.77325 27.6L10.7732 48.96C11.2266 53.1733 12.3732 56.6667 21.9999 56.6667H43.3332C52.9332 56.6667 54.1066 53.1733 54.5599 48.9333L56.5599 27.6267C56.9066 24.2933 56.4799 22.08 55.1732 20.64C53.5999 18.88 50.5066 18 45.9999 18H19.3332Z" fill="#036638"/>
<path d="M43.3333 18C42.24 18 41.3333 17.0933 41.3333 16V13.8667C41.3333 9.11999 41.3333 7.33333 34.8 7.33333H30.5333C24 7.33333 24 9.11999 24 13.8667V16C24 17.0933 23.0933 18 22 18C20.9067 18 20 17.0933 20 16V13.8667C20 9.17333 20 3.33333 30.5333 3.33333H34.8C45.3333 3.33333 45.3333 9.17333 45.3333 13.8667V16C45.3333 17.0933 44.4267 18 43.3333 18Z" fill="#036638"/>
<path d="M43.3599 38.3733C42.4532 38.3733 41.6532 37.76 41.4132 36.8533C41.1466 35.7867 41.7866 34.6933 42.8532 34.4267C48.0532 33.12 52.8799 30.8533 57.1999 27.7067C58.0799 27.0667 59.3332 27.2533 59.9999 28.16C60.6399 29.04 60.4532 30.2933 59.5466 30.96C54.7999 34.4 49.5199 36.88 43.8132 38.32C43.6799 38.3467 43.5199 38.3733 43.3599 38.3733Z" fill="#036638"/>
<path d="M21.9999 38.4533C21.8399 38.4533 21.6799 38.4267 21.5199 38.4C16.1599 37.0933 11.1199 34.8267 6.5066 31.68C5.59993 31.0667 5.35993 29.8133 5.97327 28.9067C6.5866 28 7.83993 27.76 8.7466 28.3733C12.9599 31.2533 17.5466 33.3067 22.4533 34.5067C23.5199 34.7733 24.1866 35.84 23.9199 36.9333C23.7333 37.84 22.9066 38.4533 21.9999 38.4533Z" fill="#036638"/>
</svg>
